<svg xmlns="http://www.w3.org/2000/svg" xmlns:xlink="http://www.w3.org/1999/xlink" viewBox="0 0 16 16" width="24" height="24" fill="currentColor" aria-hidden="true" role="img"><defs><path id="search_svg__search-a" d="M15.787 13.81c.4.4.2 1.3-.3 1.7-.4.401-1.298.701-1.698.301l-2.698-2.702-.1-.6-.7-.7c-1.098.7-2.397 1.2-3.796 1.2A6.487 6.487 0 0 1 0 6.505 6.487 6.487 0 0 1 6.495 0a6.487 6.487 0 0 1 6.495 6.505c0 1.4-.5 2.701-1.2 3.802l.7.7.6.1 2.697 2.703Zm-4.496-7.305c0-1.301-.5-2.502-1.399-3.503a4.755 4.755 0 0 0-3.397-1.4c-1.3 0-2.498.5-3.497 1.4-.9 1-1.4 2.202-1.4 3.503 0 1.3.5 2.501 1.4 3.402.899.9 2.098 1.4 3.497 1.4 1.299.1 2.498-.4 3.397-1.4.9-.9 1.399-2.102 1.399-3.402Z"></path></defs><use xlink:href="#search_svg__search-a"></use></svg>